<svg width="21" height="20" viewBox="0 0 21 20" fill="none" xmlns="http://www.w3.org/2000/svg">
<g clip-path="url(#clip0_85_18433)">
<path d="M1.15398 20C0.516691 20 0 19.5058 0 18.8957V1.10237C0 0.492273 0.516691 -0.00195312 1.15398 -0.00195312H19.756C20.3933 -0.00195312 20.91 0.492273 20.91 1.10237V18.8957C20.91 19.5058 20.3933 20 19.756 20H14.4271V12.2544H17.1454L17.5521 9.23581H14.4271V7.30857C14.4271 6.4348 14.6813 5.8389 15.9914 5.8389L17.6621 5.83771V3.13839C17.3736 3.10174 16.3816 3.01897 15.2276 3.01897C12.8179 3.01897 11.1686 4.42598 11.1686 7.00943V9.23581H8.44322V12.2544H11.1686V20H1.15398Z" fill="#241C15"/>
</g>
<defs>
<clipPath id="clip0_85_18433">
<rect width="21" height="20" fill="white"/>
</clipPath>
</defs>
</svg>
