<svg width="21" height="20" viewBox="0 0 21 20" fill="none" xmlns="http://www.w3.org/2000/svg">
<g clip-path="url(#clip0_85_18435)">
<path d="M10.5005 0C13.3523 0 13.7098 0.01106 14.8296 0.06083C15.9471 0.109494 16.7106 0.279818 17.378 0.528668C18.0687 0.786366 18.6545 1.13033 19.2381 1.68997C19.8217 2.2496 20.1813 2.81145 20.4494 3.47395C20.7087 4.11432 20.8863 4.84649 20.9371 5.91821C20.9878 6.99213 20.9999 7.33499 20.9999 10.0701C20.9999 12.8053 20.9878 13.1481 20.9371 14.2221C20.8863 15.2938 20.7087 16.0259 20.4494 16.6663C20.1813 17.3288 19.8217 17.8895 19.2381 18.4503C18.6545 19.0099 18.0687 19.3539 17.378 19.6116C16.7106 19.8604 15.9471 20.0308 14.8296 20.0794C13.7098 20.1281 13.3523 20.1403 10.5005 20.1403C7.6486 20.1403 7.29115 20.1292 6.17137 20.0794C5.05379 20.0308 4.29035 19.8604 3.6229 19.6116C2.93227 19.3539 2.34645 19.0099 1.76284 18.4503C1.17923 17.8907 0.819577 17.3288 0.551491 16.6663C0.292231 16.0259 0.11461 15.2938 0.063861 14.2221C0.0131121 13.1481 0.000976562 12.8053 0.000976562 10.0701C0.000976562 7.33499 0.0131121 6.99213 0.063861 5.91821C0.11461 4.84649 0.292231 4.11432 0.551491 3.47395C0.819577 2.81145 1.17923 2.25071 1.76284 1.68997C2.34645 1.13033 2.93227 0.786366 3.6229 0.528668C4.29035 0.279818 5.05379 0.109494 6.17137 0.06083C7.29115 0.012166 7.6486 0 10.5005 0ZM10.5005 1.81384C7.69604 1.81384 7.36397 1.82379 6.25742 1.87246C5.23362 1.9167 4.67759 2.08149 4.30801 2.21864C3.81817 2.40113 3.46844 2.61901 3.10107 2.97182C2.73369 3.32464 2.50642 3.65975 2.31556 4.1298C2.17214 4.48483 2.00114 5.01792 1.9537 6.00005C1.90295 7.06181 1.89192 7.38034 1.89192 10.069C1.89192 12.7577 1.90295 13.0762 1.9537 14.138C2.00004 15.1201 2.17104 15.6532 2.31556 16.0082C2.50642 16.4783 2.73369 16.8134 3.10107 17.1662C3.46844 17.519 3.81817 17.7369 4.30801 17.9194C4.67759 18.0577 5.23362 18.2213 6.25742 18.2656C7.36507 18.3143 7.69714 18.3242 10.5005 18.3242C13.3049 18.3242 13.637 18.3143 14.7435 18.2656C15.7673 18.2213 16.3233 18.0566 16.6929 17.9194C17.1828 17.7369 17.5325 17.519 17.8999 17.1662C18.2672 16.8134 18.4945 16.4783 18.6854 16.0082C18.8288 15.6532 18.9998 15.1201 19.0472 14.138C19.098 13.0762 19.109 12.7577 19.109 10.069C19.109 7.38034 19.098 7.06181 19.0472 6.00005C19.0009 5.01792 18.8299 4.48483 18.6854 4.1298C18.4945 3.65975 18.2672 3.32464 17.8999 2.97182C17.5325 2.61901 17.1828 2.40113 16.6929 2.21864C16.3233 2.08039 15.7673 1.9167 14.7435 1.87246C13.6359 1.82379 13.3038 1.81384 10.5005 1.81384ZM10.5005 4.89847C13.4781 4.89847 15.8931 7.21333 15.8931 10.069C15.8931 12.9247 13.4792 15.2396 10.5005 15.2396C7.52283 15.2396 5.10785 12.9247 5.10785 10.069C5.10785 7.21333 7.52173 4.89847 10.5005 4.89847ZM10.5005 13.4257C12.4333 13.4257 14.001 11.9227 14.001 10.069C14.001 8.21537 12.4344 6.71231 10.5005 6.71231C8.56759 6.71231 6.9999 8.21537 6.9999 10.069C6.9999 11.9227 8.56649 13.4257 10.5005 13.4257ZM17.3659 4.69386C17.3659 5.36078 16.8021 5.90272 16.106 5.90272C15.4099 5.90272 14.8461 5.36189 14.8461 4.69386C14.8461 4.02695 15.4099 3.48501 16.106 3.48501C16.8021 3.48501 17.3659 4.02584 17.3659 4.69386Z" fill="#241C15"/>
</g>
<defs>
<clipPath id="clip0_85_18435">
<rect width="21" height="20" fill="white"/>
</clipPath>
</defs>
</svg>
