<svg width="294" height="59" viewBox="0 0 294 59" fill="none" xmlns="http://www.w3.org/2000/svg">
<g clip-path="url(#clip0_475_34743)">
<path d="M150.684 33.8623C150.684 48.1014 162.59 58.5102 177.721 58.5102C192.854 58.5102 204.782 48.1014 204.782 33.8623V1.14902H190.128V32.1726C190.128 39.8553 184.765 45.0372 177.676 45.0372C170.587 45.0372 165.225 39.8778 165.225 32.1726V1.14902H150.57L150.661 33.8623H150.684ZM243.908 14.2388H261.38V57.4511H276.034V14.2388H293.507V1.12649H243.908V14.2388ZM234.433 1.12649H219.778V57.4511H234.433V1.12649ZM91.4965 14.2388H108.969V57.4511H123.623V14.2388H141.096V1.12649H91.4965V14.2388ZM14.6549 1.12649H0V57.4511H14.6549V1.12649ZM83.794 24.6477C83.794 10.4087 71.866 0 56.7335 0C41.6017 0 29.6961 10.4087 29.6961 24.6477V57.4511H44.3509V26.405C44.3509 18.7223 49.7129 13.5405 56.8015 13.5405C63.891 13.5405 69.2525 18.6997 69.2525 26.405V57.4283H83.908L83.817 24.6251L83.794 24.6477Z" fill="#5C5F65"/>
</g>
<defs>
<clipPath id="clip0_475_34743">
<rect width="294" height="59" fill="white"/>
</clipPath>
</defs>
</svg>
