<svg width="20" height="20" viewBox="0 0 20 20" fill="none" xmlns="http://www.w3.org/2000/svg">
<g clip-path="url(#clip0_85_18428)">
<path fill-rule="evenodd" clip-rule="evenodd" d="M17.0428 17.0422H14.0772V12.4006C14.0772 11.2939 14.0578 9.87 12.5356 9.87C10.9922 9.87 10.7567 11.0761 10.7567 12.3217V17.0422H7.79388V7.49778H10.6372V8.80278H10.6778C11.0733 8.05222 12.0417 7.26111 13.485 7.26111C16.4878 7.26111 17.0428 9.23722 17.0428 11.8078V17.0422ZM4.44889 6.19389C3.49611 6.19389 2.72833 5.42333 2.72833 4.47333C2.72833 3.52389 3.49611 2.75333 4.44889 2.75333C5.39778 2.75333 6.16834 3.52389 6.16834 4.47333C6.16834 5.42333 5.39778 6.19389 4.44889 6.19389ZM2.96388 17.0422H5.93278V7.49778H2.96388V17.0422ZM18.52 0H1.47556C0.661673 0 0 0.645556 0 1.44222V18.5567C0 19.3533 0.661673 20 1.47556 20H18.52C19.3361 20 19.9994 19.3533 19.9994 18.5567V1.44222C19.9994 0.645556 19.3361 0 18.52 0Z" fill="#241C15"/>
</g>
<defs>
<clipPath id="clip0_85_18428">
<rect width="20" height="20" fill="white"/>
</clipPath>
</defs>
</svg>
