<svg width="481" height="97" viewBox="0 0 481 97" fill="none" xmlns="http://www.w3.org/2000/svg">
<g clip-path="url(#clip0_475_34541)">
<path d="M165.571 51.8397V76.9074H155.591V54.6559C155.591 49.8927 154.511 43.9473 148.111 43.9473C141.721 43.9473 139.321 49.8232 139.321 55.0036V76.9074H129.381V52.6741C129.381 47.7371 127.041 43.9821 121.971 43.9821C115.991 43.9821 113.241 49.5103 113.241 54.8298V76.8734H103.301V36.785H112.761V43.2172H112.891C114.631 39.3231 118.871 35.6377 125.271 35.6377C131.671 35.6377 135.491 38.732 137.751 43.2172C140.431 38.3844 144.881 35.6377 150.861 35.6377C161.221 35.6377 165.571 43.6344 165.571 51.8397Z" fill="#5C5F65"/>
<path d="M200.231 71.7625H199.951C197.971 75.2735 193.241 77.8465 187.571 77.8465C181.181 77.8465 172.621 74.7525 172.621 65.3998C172.621 53.4394 187.571 51.8052 200.021 51.8052V50.797C200.021 45.8599 195.851 43.4261 190.881 43.4261C186.631 43.4261 182.571 45.4078 180.031 48.0155L174.881 41.9311C179.371 37.7588 185.661 35.5684 191.751 35.5684C206.031 35.5684 209.511 44.4344 209.511 52.431V76.8035H200.231V71.6926H200.271L200.231 71.7625ZM200.091 58.6198H197.831C191.501 58.6198 182.641 59.3847 182.641 65.295C182.641 69.1197 186.221 70.3017 189.631 70.3017C196.441 70.3017 200.091 66.4078 200.091 60.0453V58.6198Z" fill="#5C5F65"/>
<path d="M219.561 36.7852H229.5V76.8725H219.561V36.7852Z" fill="#5C5F65"/>
<path d="M224.74 30.2833C228.08 30.2833 230.83 27.5366 230.83 24.1641C230.83 20.7916 228.11 18.0449 224.74 18.0449C221.37 18.0449 218.66 20.7916 218.66 24.1641C218.66 27.5366 221.37 30.2833 224.74 30.2833Z" fill="#5C5F65"/>
<path d="M350.19 30.4923C353.53 30.4923 356.27 27.7457 356.27 24.3731C356.27 21.0006 353.56 18.2539 350.19 18.2539C346.81 18.2539 344.1 21.0006 344.1 24.3731C344.1 27.7457 346.81 30.4923 350.19 30.4923Z" fill="#5C5F65"/>
<path d="M239.48 13.5254H249.46V76.6644H239.48V13.5254Z" fill="#5C5F65"/>
<path d="M286.94 47.8761C285.38 45.6162 281.93 43.9821 278.7 43.9821C271.4 43.9821 267.72 50.588 267.72 56.8463C267.72 63.1046 271.44 69.7104 278.98 69.7104C282.08 69.7104 285.45 68.4592 287.36 66.0945L293.58 72.4574C290.28 76.0734 284.79 78.0554 278.88 78.0554C267.09 78.0554 257.25 70.1973 257.25 56.8463C257.25 43.4953 266.88 35.6377 278.6 35.6377C284.44 35.6377 290.49 37.9672 293.62 41.896L286.8 47.9109L286.91 47.8413L286.94 47.8761Z" fill="#5C5F65"/>
<path d="M335.45 76.9084H325.47V54.8652C325.47 50.102 324.461 44.2609 318.061 44.2609C311.661 44.2609 308.68 49.7195 308.68 55.0391V76.9424H298.73V13.7344H308.68V42.3834H308.811C310.371 39.0457 314.79 35.6036 320.7 35.6036C331.06 35.6036 335.41 43.6003 335.41 51.8056V76.9084H335.45Z" fill="#5C5F65"/>
<path d="M345.211 36.7852H355.161V76.8725H345.211V36.7852Z" fill="#5C5F65"/>
<path d="M427.551 51.8397V76.9074H417.571V54.6559C417.571 49.8927 416.491 43.9473 410.091 43.9473C403.701 43.9473 401.301 49.8232 401.301 55.0036V76.9074H391.351V52.6741C391.351 47.7371 389.021 43.9821 383.941 43.9821C377.971 43.9821 375.221 49.5103 375.221 54.8298V76.8734H365.281V36.785H374.731V43.2172H374.871C376.611 39.3231 380.851 35.6377 387.251 35.6377C393.651 35.6377 397.471 38.732 399.731 43.2172C402.411 38.3844 406.891 35.6377 412.841 35.6377C423.201 35.6377 427.551 43.6344 427.551 51.8397Z" fill="#5C5F65"/>
<path d="M447.051 36.7856V42.3833H447.331C449.311 39.2194 453.801 35.6035 461.131 35.6035C472.531 35.6035 480.501 44.8171 480.501 56.6384C480.501 68.4597 473.021 78.0204 460.931 78.0204C455.361 78.0204 450.281 75.5174 447.751 71.5195H447.611V96.8994H437.631V36.7856H447.121H447.051ZM458.841 43.8088C451.501 43.8088 447.121 50.5886 447.121 56.847C447.121 63.1052 451.541 69.7115 458.841 69.7115C466.591 69.7115 470.311 62.9662 470.311 56.6731C470.311 50.38 466.591 43.8088 458.841 43.8088Z" fill="#5C5F65"/>
<path d="M44.05 88.1034C68.3801 88.1034 88.0999 68.3802 88.0999 44.0514C88.0999 19.7225 68.3801 0 44.05 0C19.72 0 0 19.7225 0 44.0514C0 68.3802 19.72 88.1034 44.05 88.1034Z" fill="#CBCBCB"/>
<path d="M58.7906 41.2924C59.2406 41.2369 59.6706 41.2369 60.0706 41.2924C60.3006 40.7639 60.3404 39.85 60.1304 38.8574C59.8204 37.38 59.4006 36.4865 58.5506 36.6267C57.6806 36.7668 57.6505 37.8355 57.9605 39.3128C58.1305 40.142 58.4406 40.8544 58.7906 41.2924Z" fill="#5C5F65"/>
<path d="M51.3812 42.4608C52.0012 42.7323 52.3814 42.9104 52.5314 42.7557C52.6214 42.6564 52.5913 42.4724 52.4413 42.2301C52.1413 41.7338 51.5112 41.2286 50.8512 40.9454C49.4912 40.3615 47.8612 40.5542 46.6212 41.4535C46.2112 41.7571 45.8112 42.1747 45.8712 42.4287C45.8812 42.5104 45.9512 42.5717 46.1012 42.5921C46.4412 42.6301 47.6214 42.0287 48.9914 41.9469C49.9614 41.8885 50.7612 42.1892 51.3812 42.4608Z" fill="#5C5F65"/>
<path d="M50.1409 43.1666C49.3309 43.2921 48.8908 43.5578 48.6008 43.806C48.3608 44.0191 48.2109 44.2527 48.2109 44.4191C48.2109 44.4979 48.251 44.5417 48.271 44.5651C48.311 44.5972 48.3609 44.6148 48.4009 44.6148C48.5909 44.6148 48.991 44.4512 48.991 44.4512C50.111 44.0512 50.8511 44.0979 51.5811 44.1826C51.9811 44.2293 52.181 44.2527 52.271 44.1154C52.291 44.0746 52.321 43.9899 52.241 43.8585C52.051 43.552 51.2409 43.0381 50.1309 43.1695L50.1409 43.1666Z" fill="#5C5F65"/>
<path d="M56.2814 45.7678C56.8314 46.0364 57.4313 45.9313 57.6313 45.5313C57.8213 45.1342 57.5414 44.594 56.9914 44.3255C56.4414 44.0568 55.8413 44.1619 55.6513 44.5619C55.4513 44.9591 55.7414 45.4992 56.2814 45.7678Z" fill="#5C5F65"/>
<path d="M59.791 42.7023C59.351 42.6935 58.9809 43.1811 58.9709 43.7884C58.9609 44.3957 59.311 44.895 59.761 44.9037C60.201 44.9125 60.571 44.4249 60.581 43.8176C60.591 43.2103 60.241 42.711 59.791 42.7023Z" fill="#5C5F65"/>
<path d="M30.0112 53.6662C29.9012 53.529 29.7113 53.5698 29.5413 53.6107C29.4213 53.6399 29.2811 53.6721 29.1311 53.6691C28.8011 53.6633 28.5311 53.5231 28.3711 53.2866C28.1711 52.9772 28.1811 52.5129 28.4111 51.9845C28.4311 51.9144 28.4712 51.8326 28.5112 51.7479C28.8712 50.9509 29.4613 49.6136 28.7913 48.3435C28.2913 47.3859 27.4712 46.7903 26.4812 46.6648C25.5412 46.545 24.5612 46.8954 23.9412 47.5815C22.9612 48.6647 22.8012 50.1363 23.0012 50.656C23.0612 50.8457 23.1712 50.8983 23.2512 50.91C23.4112 50.9333 23.6713 50.8107 23.8213 50.3961C23.8313 50.3669 23.8511 50.3202 23.8711 50.2618C23.9311 50.0428 24.0612 49.6311 24.2712 49.3041C24.5212 48.9071 24.9211 48.6355 25.3811 48.5362C25.8511 48.4341 26.3412 48.5246 26.7412 48.7903C27.4312 49.2399 27.6911 50.0808 27.4011 50.8866C27.2411 51.3012 27.0013 52.0954 27.0513 52.7494C27.1613 54.0721 27.9712 54.6005 28.7112 54.6589C29.4112 54.6852 29.9113 54.2881 30.0413 53.9961C30.1113 53.8239 30.0512 53.7188 30.0112 53.6749V53.6662Z" fill="#5C5F65"/>
<path d="M70.981 51.2521C70.951 51.1558 70.7811 50.5134 70.5411 49.7368C70.3011 48.9601 70.0411 48.4142 70.0411 48.4142C71.0211 46.963 71.031 45.6638 70.901 44.928C70.761 44.0171 70.3909 43.2375 69.6209 42.4346C68.8609 41.6317 67.2912 40.8083 65.0912 40.1923C64.8412 40.1222 64.011 39.8944 63.941 39.8711C63.931 39.8244 63.8811 37.1499 63.8311 36.0025C63.7911 35.1733 63.7211 33.8769 63.3211 32.601C62.8411 30.8755 62.001 29.363 60.971 28.3966C63.841 25.4185 65.6309 22.1367 65.6309 19.3192C65.6209 13.9061 58.9711 12.2681 50.7811 15.6608C50.7711 15.6637 49.0511 16.3907 49.0411 16.3966C49.0311 16.3879 45.9009 13.3163 45.8609 13.2754C36.5109 5.13234 7.30093 37.5995 16.641 45.4857L18.681 47.2142C18.151 48.5864 17.9409 50.1573 18.1109 51.8477C18.3309 54.0171 19.4511 56.0988 21.2711 57.7047C22.9911 59.2317 25.261 60.1952 27.451 60.1952C31.081 68.5687 39.3909 73.7074 49.1209 73.9964C59.5709 74.3064 68.3411 69.4069 72.0111 60.6039C72.2511 59.985 73.2711 57.2025 73.2711 54.7441C73.2711 52.2857 71.871 51.2521 70.981 51.2521ZM28.2511 57.8449C27.9311 57.9003 27.6111 57.9207 27.2811 57.912C24.1311 57.8273 20.721 54.9864 20.391 51.62C20.011 47.8973 21.9111 45.0331 25.2811 44.3528C25.6911 44.2711 26.171 44.2244 26.691 44.2507C28.581 44.3528 31.3611 45.8039 31.9911 49.9119C32.5611 53.5529 31.6711 57.258 28.2611 57.8419L28.2511 57.8449ZM24.731 42.128C22.631 42.5368 20.781 43.7251 19.651 45.366C18.981 44.8025 17.7211 43.7134 17.5011 43.2871C15.7011 39.8623 19.4709 33.2024 22.1009 29.4419C28.6209 20.1426 38.8211 13.109 43.5411 14.3849C44.3111 14.6009 46.8509 17.5499 46.8509 17.5499C46.8509 17.5499 42.1311 20.1689 37.7511 23.8185C31.8511 28.3587 27.401 34.9602 24.731 42.1222V42.128ZM57.8412 56.4551C57.9012 56.4258 57.961 56.347 57.941 56.2711C57.941 56.1748 57.8511 56.1047 57.7611 56.1164C57.7611 56.1164 52.811 56.8492 48.141 55.1382C48.661 53.4857 50.0111 54.0813 52.0511 54.2478C55.7411 54.4667 59.031 53.9295 61.481 53.2287C63.591 52.6214 66.3711 51.4244 68.5211 49.7251C69.2511 51.3222 69.5111 53.0828 69.5111 53.0828C69.5111 53.0828 70.0711 52.9806 70.5411 53.2726C70.9811 53.547 71.3112 54.1163 71.0912 55.5849C70.6412 58.3325 69.4711 60.5631 67.5011 62.6127C66.3111 63.8975 64.861 65.0186 63.201 65.8301C62.321 66.2944 61.381 66.6943 60.391 67.0183C52.991 69.4364 45.421 66.7793 42.971 61.074C42.771 60.6448 42.621 60.1952 42.481 59.7251C41.441 55.9645 42.3212 51.4536 45.0912 48.6156C45.2512 48.4346 45.431 48.2215 45.431 47.9529C45.431 47.7281 45.291 47.4915 45.161 47.3251C44.201 45.9236 40.8511 43.5353 41.5311 38.9163C42.0111 35.5966 44.9109 33.258 47.6209 33.3981C47.8509 33.4098 48.0711 33.4244 48.3111 33.436C49.4811 33.5061 50.501 33.655 51.461 33.6959C53.081 33.766 54.5311 33.5295 56.2611 32.0959C56.8411 31.6112 57.3112 31.1937 58.0912 31.0594C58.1812 31.0448 58.3811 30.9718 58.7911 30.9922C59.2111 31.0156 59.611 31.1295 59.971 31.3689C61.351 32.2857 61.5409 34.5105 61.6209 36.1368C61.6609 37.0652 61.7711 39.3134 61.8111 39.9557C61.9011 41.4302 62.2811 41.6375 63.0711 41.8973C63.5111 42.0433 63.9211 42.1514 64.5211 42.3207C66.3511 42.8346 67.4309 43.3543 68.1109 44.0229C68.5209 44.4404 68.7111 44.8843 68.7711 45.3076C68.9811 46.8784 67.5511 48.82 63.7511 50.5835C59.6011 52.5105 54.5611 52.9981 51.0711 52.6127C50.8111 52.5835 49.8509 52.4755 49.8509 52.4755C47.0709 52.1017 45.481 55.6988 47.161 58.166C48.231 59.7543 51.1609 60.7879 54.1009 60.7908C60.8309 60.7908 66.001 57.9178 67.931 55.4361C67.991 55.3631 67.9911 55.3543 68.0811 55.2171C68.1711 55.074 68.101 54.9952 67.981 55.0769C66.411 56.1514 59.421 60.4229 51.961 59.1383C51.961 59.1383 51.051 58.9893 50.221 58.6653C49.561 58.4083 48.1811 57.7747 48.0111 56.3616C54.0511 58.2273 57.8412 56.4638 57.8412 56.4638V56.4551ZM36.7611 29.401C39.0811 26.7265 41.921 24.3995 44.481 23.0944C44.571 23.0506 44.6609 23.144 44.6209 23.2316C44.4109 23.5995 44.021 24.3849 43.901 24.9805C43.881 25.074 43.9811 25.1441 44.0511 25.0886C45.6411 24.0053 48.4011 22.8462 50.8311 22.6973C50.9411 22.6915 50.981 22.8258 50.901 22.8871C50.541 23.1703 50.1412 23.5616 49.8412 23.9558C49.7912 24.0229 49.831 24.1192 49.921 24.1192C51.621 24.1309 54.0312 24.7265 55.5912 25.6054C55.6912 25.6638 55.6111 25.8711 55.5011 25.8419C53.1311 25.2988 49.261 24.8871 45.231 25.8681C41.641 26.7441 38.901 28.0959 36.901 29.5528C36.801 29.6258 36.6811 29.4915 36.7611 29.3981V29.401Z" fill="#5C5F65"/>
</g>
<defs>
<clipPath id="clip0_475_34541">
<rect width="481" height="97" fill="white"/>
</clipPath>
</defs>
</svg>
