<svg width="20" height="20" viewBox="0 0 20 20" fill="none" xmlns="http://www.w3.org/2000/svg">
<g clip-path="url(#clip0_85_18426)">
<path d="M10 0C4.47059 0 0 4.47059 0 10C0 14.2353 2.58824 17.8824 6.35294 19.2941C6.23529 18.4706 6.23529 17.2941 6.35294 16.4706C6.58824 15.6471 7.52941 11.5294 7.52941 11.5294C7.52941 11.5294 7.29412 10.8235 7.29412 10C7.29412 8.58824 8.11765 7.52941 9.05882 7.52941C9.88235 7.52941 10.3529 8.11765 10.3529 8.94118C10.3529 9.76471 9.76471 11.0588 9.52941 12.2353C9.29412 13.2941 10 14.1176 10.9412 14.1176C12.7059 14.1176 14.1176 12.2353 14.1176 9.52941C14.1176 7.17647 12.3529 5.41176 9.88235 5.41176C7.05882 5.52941 5.41176 7.64706 5.41176 9.76471C5.41176 10.5882 5.76471 11.5294 6.11765 12C6.23529 12.1176 6.23529 12.2353 6.23529 12.2353C6.11765 12.5882 6 13.1765 6 13.4118C6 13.6471 5.88235 13.6471 5.64706 13.5294C4.35294 12.9412 3.64706 11.1765 3.64706 9.64706C3.64706 6.47059 5.88235 3.64706 10.2353 3.64706C13.6471 3.64706 16.3529 6.11765 16.3529 9.41177C16.3529 12.8235 14.2353 15.6471 11.1765 15.6471C10.1176 15.6471 9.17647 15.1765 8.94118 14.4706L8.35294 16.8235C8.11765 17.6471 7.52941 18.8235 7.05882 19.4118C8 19.8824 8.94118 20 10 20C15.5294 20 20 15.5294 20 10C20 4.47059 15.5294 0 10 0Z" fill="#241C15"/>
</g>
<defs>
<clipPath id="clip0_85_18426">
<rect width="20" height="20" fill="white"/>
</clipPath>
</defs>
</svg>
