<svg width="522" height="98" viewBox="0 0 522 98" fill="none" xmlns="http://www.w3.org/2000/svg">
<g clip-path="url(#clip0_475_34579)">
<path d="M44.0499 88.1031C68.3799 88.1031 88.1 68.3806 88.1 44.0515C88.1 19.7226 68.3799 0 44.0499 0C19.7199 0 0 19.7226 0 44.0515C0 68.3806 19.7199 88.1031 44.0499 88.1031Z" fill="#ACACAC"/>
<path d="M12.2695 44.0518C12.2695 53.3697 19.8496 60.8101 29.3396 60.8101H31.7695V54.5866H29.3396C23.4996 54.5866 18.6296 49.8233 18.6296 44.0518C18.6296 38.2803 23.4996 33.517 29.3396 33.517H35.1796V66.0948C35.1796 69.4676 38.0996 72.3185 41.5496 72.3185V27.2587H29.3396C19.8496 27.2587 12.2695 34.6992 12.2695 44.0171V44.0518ZM58.6495 27.2935H56.2196V33.517H58.6495C64.4895 33.517 69.3596 38.2803 69.3596 44.0518C69.3596 49.8233 64.4895 54.5866 58.6495 54.5866H52.8096V22.0087C52.8096 18.6362 49.8896 15.7852 46.4496 15.7852V60.8101H58.6495C68.1395 60.8101 75.7296 53.3697 75.7296 44.0518C75.7296 34.7339 68.1395 27.2935 58.6495 27.2935Z" fill="white"/>
<path d="M141.95 97.212H132.05V72.5264H131.91C129.33 76.455 124.29 78.854 118.77 78.854C106.67 78.854 99.2305 69.4324 99.2305 58.0283C99.2305 46.6243 107.19 37.5498 118.56 37.5498C125.86 37.5498 130.31 41.0613 132.33 44.1557H132.57V38.6971H142.1V97.247H142.03L141.95 97.212ZM120.68 70.6842C127.98 70.6842 132.36 64.2518 132.36 58.1673C132.36 52.0829 127.98 45.4769 120.68 45.4769C112.96 45.4769 109.24 51.8742 109.24 57.9935C109.24 64.1127 112.96 70.6842 120.68 70.6842Z" fill="#5C5F65"/>
<path d="M188.34 77.707H178.91V71.4493H178.78C177.04 75.378 172.31 78.82 166.44 78.82C156.11 78.82 151.76 71.0316 151.76 63.0352V38.6279H161.67V60.2537C161.67 64.8778 162.75 70.6495 169.11 70.6495C175.48 70.6495 178.39 65.2606 178.39 60.0799V38.6279H188.37V77.638L188.34 77.707Z" fill="#5C5F65"/>
<path d="M198.449 38.6973H208.439V77.7071H198.449V38.6973Z" fill="#5C5F65"/>
<path d="M245.46 49.5103C243.9 47.3199 240.49 45.7205 237.25 45.7205C229.95 45.7205 226.3 52.1179 226.3 58.2372C226.3 64.3564 230.02 70.7534 237.57 70.7534C240.66 70.7534 244.03 69.5365 245.95 67.2424L252.14 73.4311C248.83 76.9421 243.34 78.8901 237.47 78.8901C225.71 78.8901 215.91 71.2403 215.91 58.2719C215.91 45.3033 225.54 37.6543 237.19 37.6543C242.99 37.6543 249.05 39.9143 252.17 43.7388L245.36 49.5798L245.46 49.5103Z" fill="#5C5F65"/>
<path d="M257.251 16.2705H267.191V55.1414H267.431L282.531 38.7308H295.291L278.081 56.3931L296.401 77.776H283.251L267.501 57.7838H267.261V77.776H257.291V16.2705H257.221H257.251Z" fill="#5C5F65"/>
<path d="M310.971 16.2705V43.6679H311.241C313.301 41.1298 317.301 37.5834 324.601 37.5834C335.931 37.5834 343.891 46.5188 343.891 58.0619C343.891 69.605 336.451 78.888 324.351 78.888C318.791 78.888 313.401 76.35 310.691 71.8999H310.551V77.741H301.131V16.2705H310.971ZM322.341 45.5106C315.041 45.5106 310.651 52.1166 310.651 58.201C310.651 64.2855 315.041 70.7179 322.341 70.7179C330.051 70.7179 333.771 64.1464 333.771 58.0271C333.771 51.908 330.051 45.5106 322.341 45.5106Z" fill="#5C5F65"/>
<path d="M371.05 37.585C383.07 37.585 392.67 45.7903 392.67 58.0635C392.67 70.3367 383.04 78.8891 371.05 78.8891C359.05 78.8891 349.42 70.3367 349.42 58.0635C349.42 45.7903 359.05 37.585 371.05 37.585ZM371.05 70.7538C378.9 70.7538 382.55 64.1827 382.55 58.0635C382.55 51.9444 378.9 45.547 371.05 45.547C363.19 45.547 359.54 51.9444 359.54 58.0635C359.54 64.1827 363.19 70.7538 371.05 70.7538Z" fill="#5C5F65"/>
<path d="M419.681 37.585C431.681 37.585 441.311 45.7903 441.311 58.0635C441.311 70.3367 431.681 78.8891 419.681 78.8891C407.691 78.8891 398.061 70.3367 398.061 58.0635C398.061 45.7903 407.691 37.585 419.681 37.585ZM419.681 70.7538C427.551 70.7538 431.201 64.1827 431.201 58.0635C431.201 51.9444 427.551 45.547 419.681 45.547C411.831 45.547 408.181 51.9444 408.181 58.0635C408.181 64.1827 411.831 70.7538 419.681 70.7538Z" fill="#5C5F65"/>
<path d="M449.131 16.2705H459.081V55.1414H459.361L474.451 38.7308H487.241L470.031 56.3931L488.351 77.776H475.211L459.461 57.7838H459.181V77.776H449.211V16.2705H449.131Z" fill="#5C5F65"/>
<path d="M515.4 49.0933C513.66 46.8334 510.36 44.8864 506.71 44.8864C503.55 44.8864 500.32 45.9989 500.32 49.0933C500.32 52.1877 503.41 52.883 508.94 54.2043C514.85 55.595 521.8 58.2026 521.8 65.8518C521.8 75.3781 513.94 78.8551 505.22 78.8551C499.1 78.8551 492.7 76.5951 488.91 72.4227L495.45 66.4079C497.6 69.1547 501.32 71.2756 505.64 71.2756C508.52 71.2756 512.03 70.1278 512.03 66.651C512.03 63.4179 508.94 62.4443 502.92 61.0536C497.01 59.6629 491.17 57.3334 491.17 49.9973C491.17 41.3052 499.13 37.585 506.99 37.585C512.69 37.585 518.67 39.532 521.91 43.5304L515.44 49.1281V49.0586L515.4 49.0933Z" fill="#5C5F65"/>
</g>
<defs>
<clipPath id="clip0_475_34579">
<rect width="522" height="98" fill="white"/>
</clipPath>
</defs>
</svg>
