<svg width="29" height="20" viewBox="0 0 29 20" fill="none" xmlns="http://www.w3.org/2000/svg">
<g clip-path="url(#clip0_84_18424)">
<path d="M11.5052 13.6883L11.5038 5.69841L19.3395 9.70741L11.5052 13.6883ZM28.7105 4.31425C28.7105 4.31425 28.4267 2.35476 27.5583 1.49247C26.4557 0.360107 25.2198 0.35448 24.6522 0.288367C20.5939 0 14.5064 0 14.5064 0H14.4936C14.4936 0 8.40613 0 4.3478 0.288367C3.7802 0.35448 2.54568 0.360107 1.4417 1.49247C0.573274 2.35476 0.289475 4.31425 0.289475 4.31425C0.289475 4.31425 0 6.61556 0 8.91687V11.0747C0 13.376 0.289475 15.6773 0.289475 15.6773C0.289475 15.6773 0.571855 17.6368 1.4417 18.4991C2.54568 19.6315 3.99447 19.5963 4.64011 19.7144C6.96017 19.9325 14.5007 20 14.5007 20C14.5007 20 20.5939 19.9916 24.6522 19.7032C25.2184 19.6371 26.4543 19.6315 27.5583 18.4977C28.4267 17.6354 28.7105 15.6759 28.7105 15.6759C28.7105 15.6759 29 13.376 29 11.0733V8.91546C29 6.61556 28.7105 4.31425 28.7105 4.31425Z" fill="#241C15"/>
<path d="M11.5014 13.6891L11.5 5.69922L19.3357 9.70822L11.5014 13.6891Z" fill="white"/>
</g>
<defs>
<clipPath id="clip0_84_18424">
<rect width="29" height="20" fill="white"/>
</clipPath>
</defs>
</svg>
